<svg width="16" height="16"  version="1.1" viewBox="0 0 83.1 90.4" xmlns="http://www.w3.org/2000/svg">
 <defs>
  <clipPath id="clipPath6899-7-9">
   <g transform="translate(1.25e-5)" style="fill-opacity:.992;stroke-linecap:round;stroke-linejoin:round;stroke-width:5;stroke:#fff" aria-label="A">
    <path d="m2267 357-16.7 45.2h33.4zm-6.93-12.1h13.9l34.6 90.7h-12.8l-8.27-23.3h-40.9l-8.27 23.3h-12.9z" style="stroke-width:5"/>
   </g>
  </clipPath>
 </defs>
 <g transform="translate(-716 -243)">
  <path transform="translate(-1510 -102)" d="m2154 433h225v-9.47h-103v-11.4h69.9v-8.7h-137v7.82h53.1v11.4h-100v-72.1h20.5v57.4h15.5v-16.3h159v20h18v-29.7h-70.4v-7.99h-37.8v6.64h-35.8v-11.1h-10.8v9.85h-6.71v-16.5h-6.92v14.8h-15.3l.516-23.1h174v6.87h-126l-.516 6.92h136v-22.2h-220" clip-path="url(#clipPath6899-7-9)" style="fill-opacity:.992;stroke-width:5;stroke:#000"/>
 </g>
</svg>
